<?xml version="1.0" encoding="UTF-8"?>
<svg version="1.1" viewBox="0 0 1024 1024" width="1024" height="1024" xmlns="http://www.w3.org/2000/svg">
<path transform="translate(566,401)" d="m0 0h71l44 2 12 2 4 2 1 5-4 4-14 4-66 14-55 13-48 13-32 11-16 8-9 6-5 6-1 8 4 7 8 7 18 10 19 8 30 11 41 13 31 10 47 16 40 15 30 13 17 8 20 12 13 10 10 9 8 9 8 13 5 12 3 12 1 8v14l-3 18-5 17-8 18-10 18-11 15-11 12-9 9-10 7-10 4-7 1h-493l-9-1-4-3 1-5 10-7 38-19 19-10 35-18 23-13 17-10 11-7 17-11 17-12 11-9 13-11 17-17 11-15 6-13 1-3v-17l-4-10-9-11-13-10-19-11-26-13-33-15-24-12-18-11-13-10-7-7-6-10-2-7v-12l4-10 10-13 7-7 12-9 19-11 21-9 29-9 23-6 34-7 37-6 39-4 28-2z" fill="#FEFEFE"/>
<path transform="translate(505,137)" d="m0 0h12l21 3 16 5 17 9 13 10 10 9 10 13 10 19 5 17 2 15v15l-3 18-5 15-8 16-8 12-12 13-11 9-11 7-19 8-15 3-17 1-21-2-18-5-17-8-12-8-10-9-8-8-9-13-8-16-5-16-2-11-1-16 2-17 4-15 7-16 8-13 11-13 10-9 14-9 15-7 21-5z" fill="#FEFEFE"/>
</svg>
