<svg width="91" height="24" viewBox="0 0 91 24" fill="none" xmlns="http://www.w3.org/2000/svg">
<path d="M84.436 0.070907C85.7228 0.0106811 87.0004 0.31817 88.1185 0.95759C88.5004 1.21461 88.8413 1.52791 89.1301 1.88626C89.5265 2.39508 89.8091 2.98271 89.9592 3.60983C90.1248 4.25407 90.2063 4.91728 90.2004 5.5824V7.32354H85.8461V5.95543C85.8461 4.67935 85.39 4.04166 84.561 4.04145C84.3803 4.03349 84.1999 4.07018 84.0376 4.14984C83.8753 4.22949 83.7355 4.34881 83.6313 4.49651C83.3849 4.88389 83.2694 5.34021 83.3003 5.79821C83.2848 5.98299 83.2848 6.16908 83.3003 6.35385C83.3436 6.57725 83.4272 6.79105 83.5483 6.98371C83.6887 7.23147 83.8501 7.46678 84.0298 7.68778C84.2721 7.98267 84.5356 8.25989 84.8178 8.51685C84.9753 8.68251 85.1575 8.84834 85.3481 9.0471C85.5387 9.24594 85.7463 9.45324 85.9867 9.66036C86.6999 10.3068 87.3553 10.9205 87.9525 11.5587C88.5495 12.1968 89.0475 12.7435 89.429 13.2159C89.7787 13.6645 90.0819 14.148 90.3332 14.6582C90.5541 15.1123 90.7206 15.591 90.8303 16.0839C90.8836 16.3381 90.9202 16.5963 90.9387 16.8554H90.9299C90.9464 17.1203 90.9632 17.3936 90.9963 17.6503C90.9994 18.3873 90.9133 19.1224 90.7395 19.8387C90.5682 20.476 90.2877 21.0792 89.9104 21.6208C89.5835 22.1433 89.1508 22.5925 88.6409 22.9391C88.1069 23.2957 87.5146 23.5563 86.891 23.7096C86.155 23.9036 85.3963 23.9988 84.6352 23.9918C83.2313 24.0605 81.8402 23.6927 80.6539 22.9391C79.6237 22.21 78.9099 21.1164 78.656 19.8806C78.4773 19.1342 78.3903 18.3679 78.3982 17.6005V15.5293H82.8023V17.6757C82.7648 18.3049 82.9304 18.9298 83.2749 19.4578C83.4273 19.6678 83.6308 19.8359 83.8657 19.9461C84.1006 20.0562 84.3597 20.1048 84.6186 20.0877C84.8265 20.087 85.0337 20.0557 85.2328 19.9959C85.4185 19.9427 85.5889 19.8465 85.7299 19.7146C85.8573 19.5788 85.969 19.4288 86.0619 19.2674C86.1804 19.0624 86.2616 18.8376 86.3021 18.6043V17.7919C86.3062 17.5502 86.2872 17.3081 86.2445 17.0702C86.1949 16.8393 86.1133 16.6162 86.0033 16.4072C85.8526 16.1441 85.6716 15.899 85.4643 15.6777C85.2073 15.4292 84.9419 15.1478 84.6352 14.8496L84.0708 14.335L83.4077 13.7383C82.6697 13.0837 82.0313 12.4787 81.484 11.9318C80.9813 11.436 80.5155 10.9037 80.0905 10.34C79.7376 9.89062 79.4342 9.40455 79.1862 8.88988C78.9717 8.43181 78.8109 7.95011 78.7058 7.45537C78.6479 7.2077 78.6112 6.95546 78.5974 6.7015V5.87243C78.5905 5.18374 78.6654 4.49659 78.821 3.82564C78.9591 3.23254 79.2072 2.66993 79.5514 2.1675C80.2243 1.22414 81.2226 0.562828 82.3541 0.311132C83.0349 0.143384 83.7348 0.0627609 84.436 0.070907ZM58.2613 0.070907C59.5341 0.0199288 60.7962 0.327034 61.9027 0.95759C62.2829 1.21678 62.6236 1.52984 62.9144 1.88626C63.3107 2.39507 63.5934 2.98274 63.7435 3.60983C63.909 4.25407 63.9906 4.91729 63.9847 5.5824V7.32354H59.605V5.95543C59.6049 4.67921 59.1491 4.04152 58.3199 4.04145C58.1394 4.0335 57.9596 4.07036 57.7974 4.14984C57.6353 4.22943 57.4953 4.34895 57.3912 4.49651C57.1419 4.88291 57.0219 5.3393 57.0504 5.79821C57.0516 5.98436 57.0683 6.17046 57.1002 6.35385C57.1434 6.5773 57.228 6.79101 57.3492 6.98371C57.4893 7.22963 57.6474 7.4649 57.8218 7.68778C58.0778 7.98379 58.3557 8.26102 58.6519 8.51685C58.8094 8.6825 58.9998 8.84834 59.1821 9.0471C59.3646 9.24603 59.5808 9.45315 59.813 9.66036C60.5262 10.3068 61.1811 10.9371 61.7865 11.5587C62.3835 12.1885 62.8728 12.7408 63.2542 13.2159C63.6064 13.6643 63.912 14.148 64.1663 14.6582C64.3872 15.1123 64.5547 15.591 64.6643 16.0839H64.6556C64.726 16.3267 64.7848 16.5735 64.8304 16.8222V17.6503C64.8378 18.3875 64.7516 19.1232 64.5735 19.8387C64.4061 20.4775 64.1245 21.0813 63.7435 21.6208C63.4093 22.1458 62.9684 22.5952 62.4496 22.9391C61.9149 23.2942 61.3227 23.5547 60.6997 23.7096C59.9637 23.9031 59.2049 23.9983 58.4439 23.9918C57.0483 24.0569 55.6664 23.6892 54.488 22.9391C53.4577 22.21 52.743 21.1165 52.4891 19.8806C52.3292 19.2281 52.2432 18.5597 52.2322 17.8885V15.5293H56.6696V17.6259C56.6321 18.2551 56.7977 18.88 57.1422 19.408C57.2945 19.6179 57.4981 19.7861 57.733 19.8963C57.9678 20.0063 58.2271 20.055 58.4859 20.0379C58.6935 20.0366 58.9001 20.0062 59.0991 19.9471C59.285 19.8939 59.456 19.7969 59.5972 19.6648C59.7219 19.527 59.8326 19.377 59.9282 19.2176C60.0433 19.0109 60.1252 18.7869 60.1694 18.5545V18.1649C60.1781 18.0242 60.1781 17.8828 60.1694 17.7421C60.1693 17.5005 60.1494 17.2588 60.1108 17.0204C60.0574 16.7907 59.9769 16.5679 59.8706 16.3574C59.717 16.0961 59.5363 15.8514 59.3316 15.6279C59.0746 15.3794 58.8008 15.098 58.5025 14.7998L57.9381 14.2852L57.275 13.6885C56.5369 13.0337 55.8894 12.429 55.3503 11.8819C54.8451 11.3862 54.3769 10.8539 53.949 10.2902C53.5929 9.8576 53.2839 9.38828 53.0281 8.88988C52.8146 8.43061 52.6507 7.94931 52.5389 7.45537C52.4891 7.20631 52.4534 6.95454 52.4314 6.7015V5.87243C52.4246 5.18372 52.4995 4.49661 52.6551 3.82564C52.7868 3.23187 53.0319 2.6686 53.3767 2.1675C54.0544 1.22518 55.055 0.564568 56.1881 0.311132C56.8661 0.143481 57.5629 0.0628554 58.2613 0.070907ZM30.9509 17.9823C30.9423 18.3067 31.0549 18.6226 31.2663 18.869C31.3467 18.9909 31.4509 19.0952 31.5729 19.1756C31.7074 19.2637 31.8561 19.328 32.0124 19.366C32.1681 19.4144 32.3306 19.4401 32.4938 19.4412C32.8879 19.4519 33.2722 19.3155 33.5719 19.0594C33.7192 18.923 33.8348 18.756 33.9107 18.5702C33.9866 18.384 34.0212 18.1831 34.0113 17.9823L34.0445 0.270118H38.6976V17.9823C38.7313 19.2821 38.344 20.5582 37.5942 21.6208C37.2386 22.109 36.8043 22.5348 36.3091 22.8805C35.7842 23.2454 35.2045 23.5254 34.5923 23.7096C33.2026 24.0909 31.7352 24.0909 30.3454 23.7096C29.7566 23.5348 29.1977 23.2719 28.6873 22.9303C27.6477 22.23 26.898 21.1756 26.58 19.9637C26.386 19.3101 26.2917 18.6307 26.2987 17.9491V0.270118H30.9509V17.9823ZM10.8072 0.0591887C13.6734 -0.225335 16.5462 0.530838 18.9006 2.18898C21.255 3.84719 22.934 6.29682 23.6299 9.09007C24.3257 11.8834 23.9922 14.8343 22.6905 17.4022C21.3128 16.7007 20.0488 15.7954 18.9416 14.7168C19.377 13.7621 19.6059 12.7261 19.6134 11.6769C19.621 10.6276 19.4072 9.58817 18.9855 8.6272C18.5639 7.66621 17.9437 6.80524 17.1663 6.09996C16.3889 5.39476 15.4717 4.86132 14.474 4.53459C13.4763 4.2079 12.4207 4.09485 11.3765 4.20355C10.3322 4.31229 9.32259 4.64023 8.4137 5.16543C7.50475 5.6907 6.71655 6.40195 6.1013 7.25226C5.48614 8.10249 5.05693 9.07268 4.84256 10.0998C6.94237 10.0964 9.01472 10.5788 10.897 11.5089C14.8116 13.5893 20.1947 18.554 21.6046 19.1922C22.5552 19.6407 23.611 19.8184 24.6562 19.7058V23.983H22.8067C21.0698 23.9454 19.385 23.3846 17.9719 22.3747C15.475 23.8099 12.5444 24.2989 9.71638 23.7526C6.8884 23.2062 4.35192 21.661 2.57019 19.3992C0.788456 17.1374 -0.11972 14.3103 0.0126775 11.4347C0.145105 8.55917 1.30886 5.82744 3.29086 3.73873C5.27291 1.64998 7.94087 0.343724 10.8072 0.0591887ZM50.7977 0.270118V4.6215H45.6553V9.1057H50.3993V13.4571H45.6553V19.4412H50.8885V23.7926H40.9944V0.270118H50.7977ZM77.3533 0.270118V4.6215H73.6962V23.7926H69.0431V4.6215H65.3938L65.386 0.270118H77.3533ZM5.01736 14.5918C5.54647 16.0174 6.49867 17.2475 7.74674 18.117C8.9948 18.9866 10.4791 19.4547 12.0005 19.4578C12.676 19.461 13.3486 19.369 13.9984 19.1844C12.4162 17.7513 10.668 16.5129 8.79064 15.4961C7.61141 14.9304 6.32503 14.6216 5.01736 14.5918Z" fill="#292929"/>
</svg>
